{
    "asset" : {
        "generator" : "Khronos glTF Blender I/O v1.3.48",
        "version" : "2.0"
    },
    "scene" : 0,
    "scenes" : [
        {
            "name" : "Scene",
            "nodes" : [
                0,
                1,
                2,
                3
            ]
        }
    ],
    "nodes" : [
        {
            "name" : "Light",
            "rotation" : [
                0.16907575726509094,
                0.7558803558349609,
                -0.27217137813568115,
                0.570947527885437
            ],
            "translation" : [
                4.076245307922363,
                5.903861999511719,
                -1.0054539442062378
            ]
        },
        {
            "name" : "Camera",
            "rotation" : [
                0.483536034822464,
                0.33687159419059753,
                -0.20870360732078552,
                0.7804827094078064
            ],
            "translation" : [
                7.358891487121582,
                4.958309173583984,
                6.925790786743164
            ]
        },
        {
            "mesh" : 0,
            "name" : "AUTOS",
            "rotation" : [
                0.707738995552063,
                0,
                0,
                0.7064740061759949
            ],
            "translation" : [
                -0.00014269351959228516,
                -0.00018067657947540283,
                0.00026837296900339425
            ]
        },
        {
            "mesh" : 1,
            "name" : "MA",
            "rotation" : [
                0.707738995552063,
                0,
                0,
                0.7064740061759949
            ],
            "translation" : [
                -0.00014269351959228516,
                -0.00018067657947540283,
                0.00026837296900339425
            ]
        }
    ],
    "materials" : [
        {
            "doubleSided" : true,
            "emissiveFactor" : [
                0,
                0,
                0
            ],
            "name" : "AUTOS",
            "pbrMetallicRoughness" : {
                "baseColorFactor" : [
                    0.8000000715255737,
                    0.33266985416412354,
                    0.020694594830274582,
                    1
                ],
                "metallicFactor" : 0,
                "roughnessFactor" : 0.5
            }
        },
        {
            "doubleSided" : true,
            "emissiveFactor" : [
                0,
                0,
                0
            ],
            "name" : "MA.001",
            "pbrMetallicRoughness" : {
                "baseColorFactor" : [
                    0.7484014630317688,
                    0.7484014630317688,
                    0.7484014630317688,
                    1
                ],
                "metallicFactor" : 0,
                "roughnessFactor" : 0.5
            }
        }
    ],
    "meshes" : [
        {
            "name" : "Curve.002",
            "primitives" : [
                {
                    "attributes" : {
                        "POSITION" : 0,
                        "NORMAL" : 1,
                        "TEXCOORD_0" : 2
                    },
                    "indices" : 3,
                    "material" : 0
                }
            ]
        },
        {
            "name" : "Curve.001",
            "primitives" : [
                {
                    "attributes" : {
                        "POSITION" : 4,
                        "NORMAL" : 5,
                        "TEXCOORD_0" : 6
                    },
                    "indices" : 7,
                    "material" : 1
                }
            ]
        }
    ],
    "accessors" : [
        {
            "bufferView" : 0,
            "componentType" : 5126,
            "count" : 5864,
            "max" : [
                0.08587996661663055,
                0,
                0.08172056078910828
            ],
            "min" : [
                -0.0997612476348877,
                -0.009999999776482582,
                -0.009396056644618511
            ],
            "type" : "VEC3"
        },
        {
            "bufferView" : 1,
            "componentType" : 5126,
            "count" : 5864,
            "type" : "VEC3"
        },
        {
            "bufferView" : 2,
            "componentType" : 5126,
            "count" : 5864,
            "type" : "VEC2"
        },
        {
            "bufferView" : 3,
            "componentType" : 5123,
            "count" : 12288,
            "type" : "SCALAR"
        },
        {
            "bufferView" : 4,
            "componentType" : 5126,
            "count" : 1994,
            "max" : [
                0.10123106837272644,
                0,
                0.0019328546477481723
            ],
            "min" : [
                -0.10467750579118729,
                -0.009999999776482582,
                -0.0867435559630394
            ],
            "type" : "VEC3"
        },
        {
            "bufferView" : 5,
            "componentType" : 5126,
            "count" : 1994,
            "type" : "VEC3"
        },
        {
            "bufferView" : 6,
            "componentType" : 5126,
            "count" : 1994,
            "type" : "VEC2"
        },
        {
            "bufferView" : 7,
            "componentType" : 5123,
            "count" : 4062,
            "type" : "SCALAR"
        }
    ],
    "bufferViews" : [
        {
            "buffer" : 0,
            "byteLength" : 70368,
            "byteOffset" : 0
        },
        {
            "buffer" : 0,
            "byteLength" : 70368,
            "byteOffset" : 70368
        },
        {
            "buffer" : 0,
            "byteLength" : 46912,
            "byteOffset" : 140736
        },
        {
            "buffer" : 0,
            "byteLength" : 24576,
            "byteOffset" : 187648
        },
        {
            "buffer" : 0,
            "byteLength" : 23928,
            "byteOffset" : 212224
        },
        {
            "buffer" : 0,
            "byteLength" : 23928,
            "byteOffset" : 236152
        },
        {
            "buffer" : 0,
            "byteLength" : 15952,
            "byteOffset" : 260080
        },
        {
            "buffer" : 0,
            "byteLength" : 8124,
            "byteOffset" : 276032
        }
    ],
    "buffers" : [
        {
            "byteLength" : 284156,
            "uri" : "data:application/octet-stream;base64,"
        }
    ]
}
